REM DIRINDEX 1\2,1\3,1\4,1\5,1\6
REM DIRNAME folder01,folder02,folder03,folder04,folder05,folder06
TITLE ""
FILE "DISC3Track27.mp3" MP3
  TRACK 01 AUDIO
    TITLE "0:"
    INDEX 01 00:00:00
  TRACK 02 AUDIO
    TITLE "3:cjc129_2797"
    INDEX 01 00:00:05
  TRACK 03 AUDIO
    TITLE "0:"
    INDEX 01 00:01:44
  TRACK 04 AUDIO
    TITLE "5:cjc129_2798"
    INDEX 01 00:01:73
  TRACK 05 AUDIO
    TITLE "0:"
    INDEX 01 00:06:12
  TRACK 06 AUDIO
    TITLE "4:cjc129_2799"
    INDEX 01 00:07:02
  TRACK 07 AUDIO
    TITLE "0:"
    INDEX 01 00:08:40
  TRACK 08 AUDIO
    TITLE "6:cjc129_2800"
    INDEX 01 00:08:72
  TRACK 09 AUDIO
    TITLE "0:"
    INDEX 01 00:13:08
  TRACK 10 AUDIO
    TITLE "3:cjc129_2801"
    INDEX 01 00:14:54
  TRACK 11 AUDIO
    TITLE "0:"
    INDEX 01 00:16:02
  TRACK 12 AUDIO
    TITLE "5:cjc129_2802"
    INDEX 01 00:16:36
  TRACK 13 AUDIO
    TITLE "0:"
    INDEX 01 00:20:51
  TRACK 14 AUDIO
    TITLE "4:cjc129_2803"
    INDEX 01 00:21:41
  TRACK 15 AUDIO
    TITLE "0:"
    INDEX 01 00:22:64
  TRACK 16 AUDIO
    TITLE "6:cjc129_2804"
    INDEX 01 00:23:22
  TRACK 17 AUDIO
    TITLE "0:"
    INDEX 01 00:27:53
  TRACK 18 AUDIO
    TITLE "3:cjc129_2805"
    INDEX 01 00:29:29
  TRACK 19 AUDIO
    TITLE "0:"
    INDEX 01 00:30:54
  TRACK 20 AUDIO
    TITLE "5:cjc129_2806"
    INDEX 01 00:31:10
  TRACK 21 AUDIO
    TITLE "0:"
    INDEX 01 00:33:32
  TRACK 22 AUDIO
    TITLE "4:cjc129_2807"
    INDEX 01 00:34:22
  TRACK 23 AUDIO
    TITLE "0:"
    INDEX 01 00:35:49
  TRACK 24 AUDIO
    TITLE "6:cjc129_2808"
    INDEX 01 00:36:03
  TRACK 25 AUDIO
    TITLE "0:"
    INDEX 01 00:39:58
  TRACK 26 AUDIO
    TITLE "3:cjc129_2809"
    INDEX 01 00:41:32
  TRACK 27 AUDIO
    TITLE "0:"
    INDEX 01 00:42:61
  TRACK 28 AUDIO
    TITLE "5:cjc129_2810"
    INDEX 01 00:43:17
  TRACK 29 AUDIO
    TITLE "0:"
    INDEX 01 00:45:08
  TRACK 30 AUDIO
    TITLE "4:cjc129_2811"
    INDEX 01 00:45:73
  TRACK 31 AUDIO
    TITLE "0:"
    INDEX 01 00:47:30
  TRACK 32 AUDIO
    TITLE "6:cjc129_2812"
    INDEX 01 00:47:60
  TRACK 33 AUDIO
    TITLE "0:"
    INDEX 01 00:51:69
  TRACK 34 AUDIO
    TITLE "3:cjc129_2813"
    INDEX 01 00:53:43
  TRACK 35 AUDIO
    TITLE "0:"
    INDEX 01 00:55:06
  TRACK 36 AUDIO
    TITLE "5:cjc129_2814"
    INDEX 01 00:55:38
  TRACK 37 AUDIO
    TITLE "0:"
    INDEX 01 00:57:52
  TRACK 38 AUDIO
    TITLE "4:cjc129_2815"
    INDEX 01 00:58:40
  TRACK 39 AUDIO
    TITLE "0:"
    INDEX 01 01:00:00
  TRACK 40 AUDIO
    TITLE "6:cjc129_2816"
    INDEX 01 01:00:37
  TRACK 41 AUDIO
    TITLE "0:"
    INDEX 01 01:05:03
  TRACK 42 AUDIO
    TITLE "3:cjc129_2817"
    INDEX 01 01:06:53
  TRACK 43 AUDIO
    TITLE "0:"
    INDEX 01 01:08:27
  TRACK 44 AUDIO
    TITLE "5:cjc129_2818"
    INDEX 01 01:08:58
  TRACK 45 AUDIO
    TITLE "0:"
    INDEX 01 01:13:08
  TRACK 46 AUDIO
    TITLE "4:cjc129_2819"
    INDEX 01 01:13:73
  TRACK 47 AUDIO
    TITLE "0:"
    INDEX 01 01:15:48
  TRACK 48 AUDIO
    TITLE "6:cjc129_2820"
    INDEX 01 01:16:03
  TRACK 49 AUDIO
    TITLE "0:"
    INDEX 01 01:20:71
  TRACK 50 AUDIO
    TITLE "3:cjc129_2821"
    INDEX 01 01:22:46
  TRACK 51 AUDIO
    TITLE "0:"
    INDEX 01 01:24:20
  TRACK 52 AUDIO
    TITLE "5:cjc129_2822"
    INDEX 01 01:24:51
  TRACK 53 AUDIO
    TITLE "0:"
    INDEX 01 01:28:65
  TRACK 54 AUDIO
    TITLE "4:cjc129_2823"
    INDEX 01 01:29:54
  TRACK 55 AUDIO
    TITLE "0:"
    INDEX 01 01:31:28
  TRACK 56 AUDIO
    TITLE "6:cjc129_2824"
    INDEX 01 01:31:61
  TRACK 57 AUDIO
    TITLE "0:"
    INDEX 01 01:37:09
  TRACK 58 AUDIO
    TITLE "3:cjc129_2825"
    INDEX 01 01:38:57
  TRACK 59 AUDIO
    TITLE "0:"
    INDEX 01 01:40:11
  TRACK 60 AUDIO
    TITLE "5:cjc129_2826"
    INDEX 01 01:40:40
  TRACK 61 AUDIO
    TITLE "0:"
    INDEX 01 01:42:28
  TRACK 62 AUDIO
    TITLE "4:cjc129_2827"
    INDEX 01 01:43:15
  TRACK 63 AUDIO
    TITLE "0:"
    INDEX 01 01:44:46
  TRACK 64 AUDIO
    TITLE "6:cjc129_2828"
    INDEX 01 01:44:73
  TRACK 65 AUDIO
    TITLE "0:"
    INDEX 01 01:49:14
  TRACK 66 AUDIO
    TITLE "3:cjc129_2829"
    INDEX 01 01:50:64
  TRACK 67 AUDIO
    TITLE "0:"
    INDEX 01 01:52:18
  TRACK 68 AUDIO
    TITLE "5:cjc129_2830"
    INDEX 01 01:52:51
  TRACK 69 AUDIO
    TITLE "0:"
    INDEX 01 01:57:02
  TRACK 70 AUDIO
    TITLE "4:cjc129_2831"
    INDEX 01 01:57:72
  TRACK 71 AUDIO
    TITLE "0:"
    INDEX 01 01:59:26
  TRACK 72 AUDIO
    TITLE "6:cjc129_2832"
    INDEX 01 01:59:59
  TRACK 73 AUDIO
    TITLE "0:"
    INDEX 01 02:06:14
